HIERARCHY
ROOT Hips
{
  OFFSET -125.086 92.215 135.881
  CHANNELS 6 Xposition Yposition Zposition Zrotation Xrotation Yrotation
  JOINT LeftUpLeg
  {
    OFFSET 8.64259 1.95398 -2.38835
    CHANNELS 3 Zrotation Xrotation Yrotation
    JOINT LeftLeg
    {
      OFFSET 43.7702 0 0
      CHANNELS 3 Zrotation Xrotation Yrotation
      JOINT LeftFoot
      {
        OFFSET 40.6238 0 0
        CHANNELS 3 Zrotation Xrotation Yrotation
        JOINT LeftToeBase
        {
          OFFSET 12.7242 0 0
          CHANNELS 3 Zrotation Xrotation Yrotation
          End Site
          {
            OFFSET 0 0 0
          }
        }
      }
    }
  }
  JOINT RightUpLeg
  {
    OFFSET -8.2249 1.95398 -2.59336
    CHANNELS 3 Zrotation Xrotation Yrotation
    JOINT RightLeg
    {
      OFFSET 43.5653 0 0
      CHANNELS 3 Zrotation Xrotation Yrotation
      JOINT RightFoot
      {
        OFFSET 40.6238 0 0
        CHANNELS 3 Zrotation Xrotation Yrotation
        JOINT RightToeBase
        {
          OFFSET 12.7242 0 0
          CHANNELS 3 Zrotation Xrotation Yrotation
          End Site
          {
            OFFSET 0 0 0
          }
        }
      }
    }
  }
  JOINT Spine
  {
    OFFSET 0.165834 0.87714 6.61349
    CHANNELS 3 Zrotation Xrotation Yrotation
    JOINT Spine1
    {
      OFFSET 7.38963 1.71661e-005 0
      CHANNELS 3 Zrotation Xrotation Yrotation
      JOINT Spine2
      {
        OFFSET 11.9445 1.14441e-005 0
        CHANNELS 3 Zrotation Xrotation Yrotation
        JOINT Spine3
        {
          OFFSET 14.7254 4.19617e-005 0
          CHANNELS 3 Zrotation Xrotation Yrotation
          JOINT Spine4
          {
            OFFSET 10.9679 0 0
            CHANNELS 3 Zrotation Xrotation Yrotation
            JOINT RightShoulder
            {
              OFFSET 2.46616 -1.6653 3.69651
              CHANNELS 3 Zrotation Xrotation Yrotation
              JOINT RightArm
              {
                OFFSET 13.0012 0 0
                CHANNELS 3 Zrotation Xrotation Yrotation
                JOINT RightForeArm
                {
                  OFFSET 28.7848 1.52588e-005 0
                  CHANNELS 3 Zrotation Xrotation Yrotation
                  JOINT RightHand
                  {
                    OFFSET 26.5688 1.52588e-005 0
                    CHANNELS 3 Zrotation Xrotation Yrotation
                    End Site
                    {
                      OFFSET 0 0 0
                    }
                  }
                }
              }
            }
            JOINT LeftShoulder
            {
              OFFSET 2.38034 -1.29275 -3.7523
              CHANNELS 3 Zrotation Xrotation Yrotation
              JOINT LeftArm
              {
                OFFSET 16.3182 6.10352e-005 0
                CHANNELS 3 Zrotation Xrotation Yrotation
                JOINT LeftForeArm
                {
                  OFFSET 27.0901 0 0
                  CHANNELS 3 Zrotation Xrotation Yrotation
                  JOINT LeftHand
                  {
                    OFFSET 24.5451 1.52588e-005 0
                    CHANNELS 3 Zrotation Xrotation Yrotation
                    End Site
                    {
                      OFFSET 0 0 0
                    }
                  }
                }
              }
            }
            JOINT Neck
            {
              OFFSET 5.0226 -0.0266342 0
              CHANNELS 3 Zrotation Xrotation Yrotation
              JOINT Head
              {
                OFFSET 6.69363 2.86102e-005 0
                CHANNELS 3 Zrotation Xrotation Yrotation
                End Site
                {
                  OFFSET 0 0 0
                }
              }
            }
          }
        }
      }
    }
  }
}
MOTION
Frames:	10
Frame Time:	0.0416667
-2.02892 9.17257 -56.6531 169.552 3.3569 174.03 -152.284 18.3454 99.6916 -46.5635 -15.9232 -12.1669 45.3633 -3.8334 -11.9973 27.9053 -2.13519 17.9092 171.067 1.23883 81.5828 -12.8567 21.7868 1.71121 44.5563 8.08245 24.8521 30.7176 0.493216 -9.6737 -1.00928 7.77913 -90.7214 11.3069 -2.34442 -1.20257 -0.362366 -2.39508 -1.09818 -22.9049 -1.87466 -1.85163 -2.89222 -1.87466 -1.85163 103.999 9.81563 -71.0044 81.3743 2.37979 -3.80006 -29.3728 -79.1454 -29.9419 -0.521883 -0.0205702 3.07246 -72.5493 -11.5569 111.149 -82.6347 -4.91609 -11.0165 13.2835 83.2803 0.171516 -12.7754 0.387667 -9.61918 35.7955 7.18219 9.18 -35.236 3.10674 -1.85783 
-1.9317 9.18389 -56.5713 169.039 3.3736 173.958 -152.229 18.5164 99.5581 -46.5622 -14.9291 -12.1055 45.12 -3.9487 -11.4126 29.6637 -2.08296 18.5946 170.169 1.63347 80.9419 -13.984 21.3611 2.70091 45.3084 7.95141 24.6579 30.3051 0.536559 -9.02772 -1.04306 7.77534 -90.716 11.3105 -2.4092 -1.18567 -0.358627 -2.45904 -1.07846 -22.9021 -1.94151 -1.85501 -2.88944 -1.94151 -1.85502 104.009 9.80858 -70.9458 81.2603 2.35903 -3.59661 -29.5413 -78.8962 -30.2598 -0.592889 -0.025675 3.10379 -72.5601 -11.5364 111.126 -82.5296 -4.49016 -11.1387 13.2626 82.4671 0.112235 -9.19078 0.179009 -8.7403 35.972 7.26775 9.1665 -35.786 3.23336 -2.01618 
-1.93393 9.20882 -56.661 168.821 3.29473 174.043 -152.472 18.5548 99.5869 -46.4403 -15.0529 -12.1151 45.2172 -3.97844 -11.8151 29.4536 -2.22099 19.7166 170.843 0.915538 81.4402 -12.3497 22.2122 1.93799 43.9684 8.13443 24.668 32.0763 0.184842 -9.99224 -1.0626 7.76208 -90.7261 11.337 -2.45286 -1.20063 -0.332094 -2.50332 -1.09146 -22.8759 -1.97867 -1.88241 -2.86327 -1.97867 -1.88241 104.005 9.77254 -70.9908 81.2365 2.40612 -3.52618 -30.3687 -79.1345 -31.0902 -0.72016 -0.0348371 3.20258 -72.6052 -11.4903 111.018 -82.5228 -4.60806 -10.9373 13.8507 82.9186 -0.728219 -11.5594 0.309392 -9.15226 35.9176 7.24413 9.18399 -35.5118 3.21696 -2.06581 
-1.98518 9.17313 -56.6358 169.383 3.44299 174.018 -152.323 18.3246 99.7132 -46.6634 -15.6821 -12.1709 45.8325 -3.68409 -12.1901 29.1045 -2.28288 19.9837 170.829 0.937349 81.3928 -12.6123 22.335 1.86843 43.924 8.07588 25.133 31.9425 0.212177 -9.94331 -1.01566 7.79228 -90.719 11.2769 -2.35603 -1.19786 -0.392339 -2.40646 -1.09297 -22.935 -1.88713 -1.85064 -2.92236 -1.88714 -1.85065 103.989 9.77956 -71.0829 81.2479 2.41939 -3.40459 -32.0293 -79.243 -32.7961 -0.440334 -0.0144256 3.25434 -72.6416 -11.5338 110.907 -82.424 -4.77939 -10.6037 15.1625 82.6544 -2.1396 -8.64321 0.112169 -8.10138 35.8827 7.46267 9.18502 -35.4375 3.429 -2.07077 
-2.03163 9.19019 -56.6319 169.535 3.3337 174.11 -152.244 18.4448 99.8037 -46.642 -15.535 -12.1909 45.6928 -3.74893 -12.0497 29.6769 -2.21832 19.8674 171.034 0.962303 81.5804 -12.5935 22.8747 1.71704 44.4165 7.98728 25.5438 30.6276 0.694584 -11.7835 -1.0278 7.78155 -90.7276 11.2982 -2.38414 -1.21161 -0.371087 -2.43515 -1.10549 -22.9139 -1.90981 -1.87221 -2.90132 -1.90982 -1.87222 103.985 9.70966 -71.1507 81.3842 2.57202 -3.63803 -31.1248 -79.3686 -31.6979 -0.757405 -0.0375542 3.22446 -72.5919 -11.532 111.042 -82.3178 -4.81524 -10.5519 15.4816 82.5441 -2.51402 -9.17446 0.151798 -8.44567 35.7971 7.61223 9.14644 -35.0911 3.56071 -1.96154 
-2.04064 9.20396 -56.6585 169.478 3.27484 174.215 -152.285 18.5453 99.8558 -46.5225 -15.3418 -12.1293 45.336 -3.91715 -12.0131 30.141 -2.19041 19.9954 171.111 1.01476 81.7086 -12.7531 23.1583 1.71696 44.641 7.97123 25.1641 29.8615 0.80195 -10.748 -1.0232 7.77195 -90.7433 11.3169 -2.38242 -1.24247 -0.352351 -2.4348 -1.13637 -22.8948 -1.89892 -1.90111 -2.8822 -1.89892 -1.90112 104.004 9.73914 -71.0173 81.3968 2.48571 -3.79246 -28.399 -78.872 -28.9983 -0.785317 -0.0395377 3.16959 -72.5234 -11.6385 111.195 -82.5243 -5.02475 -10.9324 14.7147 82.5196 -1.161 -8.92958 0.167673 -8.87699 35.8523 7.54493 9.26581 -35.3168 3.52803 -2.27198 
-2.01205 9.16408 -56.6812 169.463 3.40088 174.1 -152.371 18.4178 99.777 -46.6003 -15.5756 -12.1593 45.4991 -3.86645 -12.1411 29.2639 -2.31688 20.4294 170.958 0.860005 81.5347 -12.5239 22.8047 1.76105 44.3904 7.93513 25.0428 30.5432 0.665691 -11.1892 -1.01723 7.78627 -90.7312 11.2886 -2.36483 -1.22093 -0.380654 -2.41627 -1.11564 -22.9232 -1.8886 -1.87529 -2.91056 -1.8886 -1.87528 104.002 9.79595 -70.9983 81.3714 2.48592 -3.73317 -29.3493 -79.0816 -29.9232 -0.628455 -0.028036 3.01161 -72.5179 -11.6444 111.208 -82.5129 -4.92061 -11.0118 14.1583 82.8137 -0.674311 -9.5191 0.184404 -8.77061 35.894 7.42359 9.30405 -35.292 3.40703 -2.3339 
-1.98745 9.15458 -56.6141 169.433 3.4611 174.041 -152.402 18.3458 99.7175 -46.6857 -15.8425 -12.0887 45.2284 -3.89663 -12.1096 29.8345 -2.10299 18.9108 170.916 1.04679 81.4314 -12.9737 22.6396 1.7974 44.7063 7.99349 25.152 30.1201 0.741304 -10.8188 -1.01766 7.78612 -90.7234 11.2892 -2.36201 -1.20571 -0.38007 -2.41278 -1.10054 -22.9228 -1.8905 -1.85991 -2.91011 -1.89049 -1.85992 104.001 9.78148 -71.0127 81.3947 2.58322 -3.72083 -29.8749 -79.3256 -30.3634 -0.415379 -0.013067 2.98827 -72.5475 -11.6406 111.13 -82.4556 -4.90902 -10.9386 14.1942 82.2972 -0.723026 -8.96566 0.164161 -8.78807 35.7922 7.34936 9.31659 -35.1467 3.3121 -2.24625 
-1.99596 9.15016 -56.6387 169.497 3.57774 173.989 -152.542 18.1773 99.6779 -46.5931 -15.7003 -12.0201 45.0676 -4.00872 -12.1822 29.6191 -1.89329 16.8269 170.812 0.887271 81.3482 -12.8162 22.513 1.834 44.4852 7.95377 25.2827 30.5813 0.609149 -10.6429 -1.02779 7.7941 -90.7142 11.2735 -2.37781 -1.18617 -0.395742 -2.42771 -1.08034 -22.9388 -1.91142 -1.84606 -2.92616 -1.91142 -1.84605 103.984 9.78657 -71.1079 81.3271 2.50367 -3.64922 -29.1733 -79.0117 -29.7471 -0.725541 -0.0349993 2.96359 -72.5554 -11.5308 111.14 -82.4788 -4.90523 -10.7951 14.4757 82.6818 -1.16919 -9.72028 0.188905 -8.71968 35.822 7.35156 9.25588 -35.271 3.33117 -2.20713 
-2.02962 9.20201 -56.6171 169.249 3.35782 174.108 -152.573 18.5624 99.6662 -46.6698 -15.2379 -11.9409 45.1575 -3.97846 -12.1008 29.8509 -1.90346 17.0602 170.994 0.895797 81.5765 -12.5463 22.9671 1.78889 43.9597 8.10714 25.3508 31.5912 0.286449 -9.76411 -1.0432 7.76417 -90.7307 11.3327 -2.41647 -1.21349 -0.336495 -2.46753 -1.10593 -22.8797 -1.94009 -1.88372 -2.86708 -1.94009 -1.88373 103.993 9.74613 -71.0771 81.3808 2.64413 -3.67083 -29.6735 -79.2576 -30.1595 -0.760006 -0.0375152 3.03031 -72.5555 -11.6118 111.116 -82.475 -5.0105 -10.8448 14.7145 82.4064 -1.25051 -8.94743 0.161915 -8.76414 35.735 7.18863 9.34532 -34.666 3.14917 -2.27794 
